<svg xmlns="http://www.w3.org/2000/svg" viewBox="0 0 751.07 318.94"><path d="M160.8 202.74h-28.24l-7.46-21.33H85.37l-7.58 21.33H49.54L90 97.56h30.49zm-42-39.62l-13.39-38.39-13.57 38.39zm207.66-32.47a38.17 38.17 0 0 1-1.75 11.42 31.61 31.61 0 0 1-5.64 10.39 28.12 28.12 0 0 1-10.53 7.82 37.58 37.58 0 0 1-15.61 3h-18.08v39.46h-27.58V97.56h45.66a37.25 37.25 0 0 1 15.61 3 28.38 28.38 0 0 1 10.53 7.9 31.7 31.7 0 0 1 5.64 10.54 39.58 39.58 0 0 1 1.75 11.65zm-28.11.15q0-7.52-3.87-10.29t-13.82-2.77h-5.81v25.35h5.94a43.1 43.1 0 0 0 10.56-1 8.55 8.55 0 0 0 5.35-3.64c1.09-1.76 1.65-4.31 1.65-7.65zm213.96 71.94h-33.66l-35-49.25v49.25H416.1V97.56h27.58v47.05l33.12-47.05h30l-34.05 49.25zm184.2-52.67a62 62 0 0 1-5.91 27.09 46.23 46.23 0 0 1-17.6 19.66q-11.68 7.29-28.45 7.28-17 0-28.7-7.58a46.66 46.66 0 0 1-17.45-20 64.58 64.58 0 0 1 0-53 46.16 46.16 0 0 1 17.46-19.88q11.77-7.56 28.73-7.55a56.13 56.13 0 0 1 22.6 4.32 44.88 44.88 0 0 1 16.34 11.73 50.75 50.75 0 0 1 9.7 17.22 64.54 64.54 0 0 1 3.28 20.71zm-28.11 0a36.44 36.44 0 0 0-1.52-10.81 23.65 23.65 0 0 0-4.59-8.5 21.23 21.23 0 0 0-7.49-5.62 24.51 24.51 0 0 0-10.23-2q-11.09 0-17.42 7.44t-6.33 19.5q0 12.08 6.37 19.54t17.38 7.48a23.3 23.3 0 0 0 12.94-3.46 21.73 21.73 0 0 0 8.11-9.56 33.51 33.51 0 0 0 2.78-14.01z" fill="#fff"/><path fill="none" d="M697.46 310.67v.16"/><path d="M697.46 318.94h53.61v-26.67l-8.67-.17v18.5l-44.94.17zm0-318.94h53.61v26.67l-8.67.16V8.33l-44.94-.16zM53.61 318.94H0v-26.67l8.67-.17v18.5l44.94.17zM53.61 0H0v26.67l8.67.16V8.33l44.94-.16z" fill="red"/></svg>