<svg xmlns="http://www.w3.org/2000/svg" viewBox="0 0 751.07 318.94">
	<path d="M160.8,202.74H132.56l-7.46-21.33H85.37l-7.58,21.33H49.54L90,97.56h30.49Zm-42-39.62-13.39-38.39L91.84,163.12Z" fill="#fff"/>
	<path d="M326.46,130.65a38.17,38.17,0,0,1-1.75,11.42,31.61,31.61,0,0,1-5.64,10.39,28.12,28.12,0,0,1-10.53,7.82,37.58,37.58,0,0,1-15.61,3H274.85v39.46H247.27V97.56h45.66a37.25,37.25,0,0,1,15.61,3,28.38,28.38,0,0,1,10.53,7.9A31.7,31.7,0,0,1,324.71,119,39.58,39.58,0,0,1,326.46,130.65Zm-28.11.15q0-7.52-3.87-10.29t-13.82-2.77h-5.81v25.35h5.94a43.1,43.1,0,0,0,10.56-1,8.55,8.55,0,0,0,5.35-3.64C297.79,136.69,298.35,134.14,298.35,130.8Z" fill="#fff"/>
	<path d="M512.31,202.74H478.65l-35-49.25v49.25H416.1V97.56h27.58v47.05L476.8,97.56h30l-34.05,49.25Z" fill="#fff"/>
	<path d="M696.51,150.07a62,62,0,0,1-5.91,27.09A46.23,46.23,0,0,1,673,196.82q-11.68,7.29-28.45,7.28-17,0-28.7-7.58a46.66,46.66,0,0,1-17.45-20,64.58,64.58,0,0,1,0-53,46.16,46.16,0,0,1,17.46-19.88q11.77-7.56,28.73-7.55a56.13,56.13,0,0,1,22.6,4.32,44.88,44.88,0,0,1,16.34,11.73,50.75,50.75,0,0,1,9.7,17.22A64.54,64.54,0,0,1,696.51,150.07Zm-28.11,0a36.44,36.44,0,0,0-1.52-10.81,23.65,23.65,0,0,0-4.59-8.5,21.23,21.23,0,0,0-7.49-5.62,24.51,24.51,0,0,0-10.23-2q-11.09,0-17.42,7.44t-6.33,19.5q0,12.08,6.37,19.54t17.38,7.48a23.3,23.3,0,0,0,12.94-3.46,21.73,21.73,0,0,0,8.11-9.56A33.51,33.51,0,0,0,668.4,150.07Z" fill="#fff"/>
	<line x1="697.46" y1="310.67" x2="697.46" y2="310.83" fill="none"/>
	<path d="M697.46,318.94h53.61V292.27l-8.67-.17v18.5l-44.94.17Z" fill="red"/>
	<path d="M697.46,0h53.61V26.67l-8.67.16V8.33l-44.94-.16Z" fill="red"/>
	<path d="M53.61,318.94H0V292.27l8.67-.17v18.5l44.94.17Z" fill="red"/>
	<path d="M53.61,0H0V26.67l8.67.16V8.33l44.94-.16Z" fill="red"/>
</svg>